<svg width="162" height="26" viewBox="0 0 162 26" fill="none" xmlns="http://www.w3.org/2000/svg">
<g clip-path="url(#clip0_3319_308)">
<path d="M13.4638 25.9808C11.7025 25.9808 10.0307 25.6508 8.44835 24.9908C6.87544 24.3208 5.48149 23.3958 4.26649 22.2158C3.05149 21.0358 2.0955 19.6758 1.39852 18.1358C0.710967 16.5858 0.367188 14.9258 0.367188 13.1558C0.367188 11.3858 0.715676 9.72578 1.41265 8.17578C2.10963 6.61578 3.06091 5.24578 4.26649 4.06578C5.48149 2.88578 6.87544 1.96578 8.44835 1.30578C10.0213 0.635782 11.6836 0.300781 13.4355 0.300781C14.8483 0.300781 16.2046 0.510782 17.5043 0.930782C18.8135 1.34078 19.9108 1.86078 20.7961 2.49078L18.1684 8.13078C17.6597 7.72078 17.0146 7.39578 16.2328 7.15578C15.4605 6.90578 14.6646 6.78078 13.8452 6.78078C12.9034 6.78078 12.0227 6.94078 11.2033 7.26078C10.3933 7.58078 9.67748 8.03078 9.05585 8.61078C8.44364 9.18078 7.96329 9.85078 7.6148 10.6208C7.26632 11.3908 7.09207 12.2308 7.09207 13.1408C7.09207 14.0508 7.26632 14.8908 7.6148 15.6608C7.96329 16.4308 8.44364 17.1058 9.05585 17.6858C9.67748 18.2558 10.3933 18.7008 11.2033 19.0208C12.0227 19.3408 12.9034 19.5008 13.8452 19.5008C14.6646 19.5008 15.4605 19.3808 16.2328 19.1408C17.0146 18.8908 17.6597 18.5608 18.1684 18.1508L20.7961 23.7908C19.9579 24.3908 18.8889 24.9058 17.5891 25.3358C16.2988 25.7658 14.9236 25.9808 13.4638 25.9808ZM23.6297 25.5008V0.750782H29.846V25.5008H23.6297ZM36.194 25.5008V6.54078H31.108V0.750782H47.4965V6.54078H42.4103V25.5008H36.194ZM55.1208 25.5008V14.2808L46.3615 0.750782H53.8493L58.229 7.62078L62.6086 0.750782H70.0964L61.3371 14.2808V25.5008H55.1208Z" fill="black"/>
<path d="M90.4227 25.9808C88.6615 25.9808 86.9897 25.6508 85.4073 24.9908C83.8344 24.3208 82.4405 23.3958 81.2255 22.2158C80.0105 21.0358 79.0545 19.6758 78.3575 18.1358C77.67 16.5858 77.3262 14.9258 77.3262 13.1558C77.3262 11.3858 77.6747 9.72578 78.3716 8.17578C79.0686 6.61578 80.0199 5.24578 81.2255 4.06578C82.4405 2.88578 83.8344 1.96578 85.4073 1.30578C86.9802 0.635782 88.6426 0.300781 90.3945 0.300781C91.8073 0.300781 93.1636 0.510782 94.4633 0.930782C95.7725 1.34078 96.8698 1.86078 97.7551 2.49078L95.1273 8.13078C94.6187 7.72078 93.9736 7.39578 93.1918 7.15578C92.4195 6.90578 91.6236 6.78078 90.8042 6.78078C89.8623 6.78078 88.9817 6.94078 88.1623 7.26078C87.3523 7.58078 86.6365 8.03078 86.0148 8.61078C85.4026 9.18078 84.9223 9.85078 84.5738 10.6208C84.2253 11.3908 84.0511 12.2308 84.0511 13.1408C84.0511 14.0508 84.2253 14.8908 84.5738 15.6608C84.9223 16.4308 85.4026 17.1058 86.0148 17.6858C86.6365 18.2558 87.3523 18.7008 88.1623 19.0208C88.9817 19.3408 89.8623 19.5008 90.8042 19.5008C91.6236 19.5008 92.4195 19.3808 93.1918 19.1408C93.9736 18.8908 94.6187 18.5608 95.1273 18.1508L97.7551 23.7908C96.9169 24.3908 95.8479 24.9058 94.5481 25.3358C93.2577 25.7658 91.8826 25.9808 90.4227 25.9808ZM97.2404 25.5008L106.734 0.750782H112.499L121.993 25.5008H115.296L113.897 21.3908H105.336L103.937 25.5008H97.2404ZM107.455 15.6008H111.778L109.616 9.72078L107.455 15.6008ZM124.181 25.5008V0.750782H133.393C135.032 0.750782 136.459 1.06078 137.674 1.68078C138.889 2.29078 139.83 3.18078 140.499 4.35078C141.168 5.51078 141.502 6.92078 141.502 8.58078C141.502 9.76078 141.328 10.8408 140.979 11.8208C140.631 12.7908 140.122 13.6408 139.454 14.3708C138.794 15.0908 137.98 15.6708 137.01 16.1108L144.554 25.5008H136.67L130.412 16.9208H130.398V25.5008H124.181ZM130.398 11.4608H131.358C132.15 11.4608 132.809 11.3608 133.336 11.1608C133.873 10.9608 134.273 10.6608 134.537 10.2608C134.81 9.85078 134.947 9.35078 134.947 8.76078C134.947 7.85078 134.641 7.16578 134.029 6.70578C133.426 6.23578 132.536 6.00078 131.358 6.00078H130.398V11.4608ZM152.79 25.9808C151.792 25.9808 150.836 25.8958 149.922 25.7258C149.008 25.5658 148.161 25.3458 147.379 25.0658C146.607 24.7858 145.914 24.4808 145.302 24.1508C144.69 23.8108 144.186 23.4708 143.79 23.1308L146.87 17.5208C147.285 17.8208 147.737 18.1108 148.227 18.3908C148.726 18.6708 149.244 18.9208 149.781 19.1408C150.318 19.3608 150.854 19.5358 151.391 19.6658C151.938 19.7958 152.465 19.8608 152.974 19.8608C153.445 19.8608 153.84 19.8008 154.16 19.6808C154.481 19.5608 154.725 19.3758 154.895 19.1258C155.065 18.8658 155.149 18.5458 155.149 18.1658C155.149 17.7858 155.06 17.4558 154.881 17.1758C154.711 16.8858 154.438 16.6058 154.061 16.3358C153.685 16.0658 153.19 15.7708 152.578 15.4508C151.966 15.1308 151.222 14.7508 150.346 14.3108C149.677 13.9708 149.07 13.5858 148.523 13.1558C147.986 12.7158 147.525 12.2308 147.139 11.7008C146.762 11.1708 146.47 10.5958 146.263 9.97578C146.065 9.35578 145.966 8.69578 145.966 7.99578C145.966 7.01578 146.159 6.07078 146.545 5.16078C146.932 4.24078 147.483 3.41578 148.198 2.68578C148.914 1.95578 149.771 1.37578 150.77 0.945782C151.777 0.515782 152.898 0.300781 154.132 0.300781C154.923 0.300781 155.761 0.390781 156.647 0.570782C157.542 0.750782 158.408 1.00078 159.246 1.32078C160.085 1.64078 160.819 2.01078 161.45 2.43078L158.992 7.74078C158.502 7.44078 157.984 7.18578 157.438 6.97578C156.892 6.75578 156.35 6.59078 155.813 6.48078C155.276 6.36078 154.768 6.30078 154.287 6.30078C153.826 6.30078 153.43 6.36078 153.101 6.48078C152.771 6.59078 152.517 6.76078 152.338 6.99078C152.159 7.21078 152.069 7.49078 152.069 7.83078C152.069 8.05078 152.112 8.24578 152.197 8.41578C152.291 8.57578 152.437 8.72578 152.635 8.86578C152.842 9.00578 153.115 9.15578 153.454 9.31578C153.793 9.47578 154.207 9.67078 154.697 9.90078C155.912 10.4708 156.976 11.0208 157.89 11.5508C158.804 12.0808 159.562 12.6508 160.165 13.2608C160.777 13.8608 161.234 14.5458 161.535 15.3158C161.836 16.0858 161.987 16.9908 161.987 18.0308C161.987 19.6908 161.61 21.1158 160.857 22.3058C160.113 23.4958 159.053 24.4058 157.678 25.0358C156.303 25.6658 154.674 25.9808 152.79 25.9808Z" fill="#FF9C07"/>
</g>
<defs>
<clipPath id="clip0_3319_308">
<rect width="162" height="26" fill="white"/>
</clipPath>
</defs>
</svg>
